<?xml version="1.0" encoding="UTF-8"?>
<svg width="150px" height="40px" viewBox="0 0 150 40" version="1.1" xmlns="http://www.w3.org/2000/svg" xmlns:xlink="http://www.w3.org/1999/xlink">
    <title>logo-返佣宝</title>
    <defs>
        <linearGradient x1="6.74778475%" y1="48.7804181%" x2="100%" y2="52.2937387%" id="linearGradient-1">
            <stop stop-color="#CDB895" offset="0%"></stop>
            <stop stop-color="#F1E0CA" offset="10.8188199%"></stop>
            <stop stop-color="#F4E7D7" offset="22.4070254%"></stop>
            <stop stop-color="#F0CEA1" offset="44.4844513%"></stop>
            <stop stop-color="#D4C8BC" offset="62.3097254%"></stop>
            <stop stop-color="#FFEAC6" offset="73.5509166%"></stop>
            <stop stop-color="#F5D6B5" offset="83.7151186%"></stop>
            <stop stop-color="#C1A488" offset="100%"></stop>
        </linearGradient>
    </defs>
    <g id="页面-1" stroke="none" stroke-width="1" fill="none" fill-rule="evenodd">
        <g id="1.首页" transform="translate(-25, -36)" fill="url(#linearGradient-1)">
            <path d="M174.730539,63.113658 C174.795435,63.113658 174.848105,63.1663745 174.848105,63.2308579 L174.848105,63.9848911 L174.842108,64.0220712 C174.826548,64.0688232 174.782456,64.1025617 174.730539,64.1025617 L140.141236,64.1025617 L140.141236,75.0106257 L174.882904,75.0106257 L174.919822,75.0166316 C174.966292,75.0322206 175,75.0764271 175,75.1287669 L175,75.8823294 L174.994007,75.9193288 C174.978462,75.9659603 174.934445,76 174.882904,76 L60.3548923,76 L60.263877,75.9918944 C59.9972756,75.9438947 59.7938678,75.6884553 59.7938678,75.3796406 L59.7938678,63.7335467 L59.801209,63.6330386 C59.8446798,63.3385971 60.0759789,63.113658 60.3548923,63.113658 L174.730539,63.113658 Z M163.1028,66.2112187 L163.1028,72.8506643 L163.097935,73.0077157 C163.07848,73.3083212 163.000685,73.5279089 162.864846,73.6658861 L162.790276,73.7301212 C162.62743,73.8486838 162.382356,73.9078169 162.055052,73.9078169 L161.428191,73.9078169 L161.240556,72.9673935 L161.768191,72.9673935 L161.868324,72.9643435 C161.991661,72.9562101 162.074427,72.9318099 162.118068,72.8911429 L162.146787,72.8536879 C162.180857,72.7944648 162.198012,72.698069 162.198012,72.5640187 L162.198012,71.4353224 L161.025645,71.4353224 L161.025645,73.7468435 L160.166003,73.7468435 L160.166003,71.4353224 L158.96636,71.4353224 L158.936275,71.7400911 C158.889519,72.1374675 158.816158,72.4988762 158.71571,72.8238354 L158.63417,73.0672083 C158.516807,73.3912335 158.364893,73.7133309 158.178669,74.0330184 L157.346302,73.5049127 L157.474786,73.2909631 C157.636436,73.0118824 157.759382,72.7575633 157.842901,72.5282468 L157.901424,72.3495909 C157.973972,72.1028629 158.02461,71.822035 158.053579,71.5068661 L158.066123,71.3509875 C158.093397,70.9686776 158.106719,70.4561854 158.106719,69.8128802 L158.106719,66.2112187 L163.1028,66.2112187 Z M156.934351,65.8351435 L157.820798,66.0497747 L157.734305,66.3567954 C157.56246,66.9551082 157.397427,67.4590649 157.238612,67.868962 L157.238612,73.9525317 L156.352165,73.9525317 L156.352165,69.7239213 L156.162335,70.0442119 C156.032438,70.2565768 155.895852,70.4665011 155.752579,70.6732876 L155.376368,69.5356483 L155.494304,69.3491744 C155.730255,68.9615407 155.96675,68.4858249 156.204972,67.9226198 C156.481958,67.2655472 156.725554,66.569408 156.934351,65.8351435 Z M145.789573,68.666298 L145.789573,71.8382265 L145.903701,71.9921712 C146.135696,72.2852018 146.390099,72.4891129 146.666614,72.6044974 L146.812705,72.6578944 C147.120956,72.756499 147.525652,72.8059494 148.027087,72.8059494 L151.867731,72.8059494 L151.7243,73.7468435 L147.856852,73.7468435 L147.608158,73.7432324 C147.288453,73.7336079 147.016302,73.7047645 146.791705,73.6569432 L146.586589,73.6039914 C146.386896,73.5429203 146.203405,73.4574915 146.035521,73.3477048 L145.901337,73.2523709 C145.722607,73.1148865 145.544659,72.9359519 145.368216,72.7160491 L144.240524,73.8899309 L143.846914,72.8148924 L144.84011,71.8650554 L144.84011,69.5977784 L143.917923,69.5977784 L143.917923,68.666298 L145.789573,68.666298 Z M174.507634,68.5137969 L174.507634,69.4189191 L171.615983,69.4189191 L171.615983,70.404528 L174.328463,70.404528 L174.328463,71.2917642 L173.191366,71.2917642 L173.329935,71.4680135 C173.597607,71.8095148 173.808419,72.0850658 173.961188,72.2952591 L173.415682,72.7160491 L175,72.7160491 L175,73.6390572 L167.282973,73.6390572 L167.282973,72.7160491 L170.613381,72.7160491 L170.613381,71.2917642 L167.963445,71.2917642 L167.963445,70.404528 L170.613381,70.404528 L170.613381,69.4189191 L167.784745,69.4189191 L167.784745,68.5137969 L174.507634,68.5137969 Z M121.58228,66.0860172 L121.308741,66.0926582 C120.680307,66.1236497 120.120642,66.2631114 119.629746,66.5110434 L119.425359,66.6227707 C118.962456,66.8962307 118.597576,67.2590165 118.331348,67.7108128 L118.224391,67.9085214 C117.991487,68.3793656 117.875192,68.9168775 117.875192,69.5210572 L117.882313,69.7804785 C117.915547,70.3762282 118.06512,70.9050398 118.331348,71.3675441 L118.451484,71.5599806 C118.745885,71.9959271 119.138849,72.3403857 119.629746,72.5936717 C120.19077,72.8831413 120.841615,73.0276408 121.58228,73.0276408 L121.85711,73.0198767 C122.308825,72.9940001 122.728862,72.9034591 123.117221,72.7485262 L123.311248,72.6644099 C123.688303,72.4873071 123.999369,72.2569993 124.244443,71.973783 L123.749255,71.664074 L123.61574,71.800184 C123.384266,72.0177656 123.108051,72.1890417 122.787096,72.314557 L122.553586,72.3958909 C122.239013,72.4922867 121.911559,72.5404846 121.571464,72.5404846 L121.314986,72.5329029 C120.811058,72.5025706 120.361274,72.3811922 119.965044,72.1681748 L119.773611,72.0556433 C119.403712,71.8177278 119.11165,71.5026972 118.898015,71.1105515 L118.798828,70.9100422 C118.615713,70.5001533 118.524156,70.0370595 118.524156,69.5210572 L118.531786,69.2726837 C118.562305,68.7847082 118.684381,68.3493942 118.898015,67.9673346 L119.011365,67.7825568 C119.251126,67.4255024 119.569216,67.1434388 119.965044,66.9360696 L120.167625,66.8397649 C120.581723,66.6619211 121.049472,66.5727028 121.571464,66.5727028 L121.813101,66.5821277 C122.135047,66.6072509 122.45603,66.68256 122.77581,66.8075733 L122.969402,66.8904243 C123.281604,67.035998 123.541556,67.2191066 123.749255,67.4411118 L124.255729,67.139875 L124.098076,66.9806667 C123.823374,66.7253215 123.488964,66.5199864 123.095119,66.3646612 L122.855955,66.2794655 C122.452987,66.1504092 122.028247,66.0860172 121.58228,66.0860172 Z M87.2831301,70.8328489 L85.9800295,70.8328489 L86.0251748,70.9406352 L86.0425745,70.9881741 L86.0797254,71.0700728 L86.8556604,72.913265 L88.2349437,72.913265 L87.2831301,70.8328489 Z M82.00348,66.2050998 L75.4367182,66.2050998 L75.4367182,67.0471506 L78.0979402,67.0471506 L78.0979402,72.913265 L79.3417876,72.913265 L79.3417876,67.0471506 L82.00348,67.0471506 L82.00348,66.2050998 Z M82.8998025,70.8328489 L81.6056369,70.8328489 L80.6933254,72.913265 L82.108819,72.913265 L82.8998025,70.8328489 Z M72.6109038,66.2050998 L69.2772048,66.2050998 L69.2772048,72.913265 L70.5050632,72.913265 L70.5050632,70.0096255 L72.1044299,70.0096255 L72.2892268,70.011914 C73.5975543,70.045545 73.8862589,70.4512892 73.8862589,71.324712 L73.886337,71.6692689 C73.887333,72.2170735 73.8992695,72.6555403 74.0334514,72.913265 L75.2274509,72.913265 L75.1839662,72.792888 C75.0979153,72.484569 75.1141173,71.9967876 75.1141173,71.594413 L75.1141173,71.2983538 L75.10868,71.1101835 C75.0476069,70.0835255 74.4814298,69.7221693 73.8867292,69.5883647 L74.027708,69.5503181 C74.7231408,69.3401588 75.2678935,68.8308015 75.2678935,68.008284 L75.2630843,67.8792507 C75.1894085,66.9019288 74.270719,66.2050998 72.6109038,66.2050998 Z M93.8889237,66.2098067 L89.1260934,66.2098067 L89.1260934,72.9033807 L89.7637709,72.9033807 L89.7637709,69.7869927 L93.5921874,69.7869927 L93.5921874,69.3003071 L89.7637709,69.3003071 L89.7637709,66.6969629 L93.8889237,66.6969629 L93.8889237,66.2098067 Z M107.361507,66.2098067 L106.690911,66.2098067 L103.676521,72.9033807 L104.358874,72.9033807 L105.414616,70.5485568 L108.648619,70.5485568 L109.704831,72.9033807 L110.375897,72.9033807 L107.361507,66.2098067 Z M102.609493,66.2098067 L101.982161,66.2098067 L101.982161,72.0269701 L101.938427,72.0269701 L97.2080446,66.2098067 L97.1972286,67.0866879 L101.92714,72.9033807 L102.609493,72.9033807 L102.609493,66.2098067 Z M95.9129385,66.2098067 L95.275261,66.2098067 L95.275261,72.9033807 L95.9129385,72.9033807 L95.9129385,66.2098067 Z M130.514939,66.2098067 L125.652412,66.2098067 L125.652412,72.9033807 L130.657899,72.9033807 L130.657899,72.4166951 L126.29056,72.4166951 L126.29056,69.6542603 L130.272753,69.6542603 L130.272753,69.176047 L126.29056,69.176047 L126.29056,66.6969629 L130.514939,66.6969629 L130.514939,66.2098067 Z M112.124808,66.2098067 L111.431639,66.2098067 L111.431639,72.9033807 L112.069787,72.9033807 L112.069787,67.0866879 L112.113522,67.0866879 L116.844374,72.9033807 L116.85519,72.0269701 L112.124808,66.2098067 Z M151.393234,65.8172576 L151.563,66.7581516 L151.226336,66.8172957 C150.767615,66.8936893 150.269586,66.9602626 149.732733,67.0174976 L149.06475,67.082138 C148.621762,67.1206294 148.183371,67.1499163 147.749161,67.1699987 L147.749161,67.9226198 L151.419569,67.9226198 L151.419569,68.8362143 L151.304263,69.1298364 C151.057485,69.7100601 150.713771,70.2481942 150.274007,70.7448313 L150.63251,71.0490319 C150.982694,71.3481873 151.307882,71.6321853 151.607675,71.9008272 L150.972348,72.6623913 L150.849388,72.5427212 C150.547149,72.2507281 150.137572,71.8694092 149.62034,71.3990798 L149.38566,71.6016612 C148.902018,72.002485 148.332691,72.377225 147.677681,72.7249921 L147.14064,71.8739983 L147.470569,71.7006652 C148.007976,71.4068591 148.483008,71.0884295 148.895664,70.7448313 L147.749161,69.6966217 L148.331348,69.0423732 L148.400111,69.1063681 C148.62435,69.3128461 149.010173,69.6497888 149.558266,70.1178824 L149.735633,69.9106667 C150.018837,69.5631571 150.239991,69.2049155 150.399097,68.8362143 L147.749161,68.8362143 L147.73756,69.1560052 C147.70607,69.7791832 147.624877,70.3040037 147.494278,70.7316522 L147.409174,70.9834346 C147.252093,71.4069507 147.01892,71.8499151 146.711289,72.313145 L145.941468,71.7125543 L146.07775,71.507589 C146.250431,71.2377864 146.386996,70.9819611 146.487444,70.7405952 L146.55804,70.5547735 C146.646224,70.3002436 146.710631,70.0186626 146.751262,69.7102715 L146.771474,69.5380552 C146.808788,69.1796011 146.827445,68.7369676 146.827445,68.2092654 L146.827445,66.2559335 L147.3965,66.2366135 C147.970626,66.2113952 148.559896,66.1685043 149.163714,66.1081393 C149.969746,66.0271819 150.712293,65.930692 151.393234,65.8172576 Z M172.878641,71.2917642 L171.615983,71.2917642 L171.615983,72.7160491 L173.128821,72.7160491 L172.953993,72.470272 C172.774007,72.2205382 172.578612,71.9589565 172.368405,71.6857254 L172.878641,71.2917642 Z M162.198012,69.3294894 L161.025645,69.3294894 L161.025645,70.5212572 L162.198012,70.5212572 L162.198012,69.3294894 Z M160.166003,69.3294894 L159.011506,69.3294894 L159.011506,70.5207865 L160.166003,70.5207865 L160.166003,69.3294894 Z M85.1664733,66.2050998 L83.6348246,66.2050998 L83.2910619,66.9892567 L81.8581685,70.2567337 L83.1189454,70.2567337 L84.1013261,67.6740995 L84.1644431,67.5146286 C84.2450575,67.3093207 84.3113459,67.1334738 84.3613819,66.9892567 L84.4676615,67.2420131 L84.524349,67.3833873 C84.604828,67.5809232 84.7050506,67.8152101 84.826943,68.0934775 L85.7373734,70.2567337 L87.0197824,70.2567337 L85.8290748,67.6533895 L85.1664733,66.2050998 Z M107.053955,66.9624278 L108.439352,70.0614005 L105.623883,70.0614005 L107.00928,66.9624278 L107.053955,66.9624278 Z M72.3626046,67.030206 L72.5485225,67.0341895 C73.5105443,67.0765821 73.9995924,67.455786 73.9995924,68.097243 L73.9946914,68.2135719 C73.9389836,68.8544765 73.4056233,69.1840486 72.2539737,69.1840486 L70.5050632,69.1840486 L70.5050632,67.030206 L72.3626046,67.030206 Z M162.198012,67.1252839 L161.025645,67.1252839 L161.025645,68.4243672 L162.198012,68.4243672 L162.198012,67.1252839 Z M160.166003,67.1252839 L159.011506,67.1252839 L159.011506,68.4243672 L160.166003,68.4243672 L160.166003,67.1252839 Z M171.508763,65.6379276 L171.621156,65.9463117 C171.695457,66.1547368 171.768505,66.3687404 171.840298,66.5877646 L174.848105,66.5877646 L174.848105,68.2455079 L173.836097,68.2455079 L173.836097,67.4924161 L168.437941,67.4924161 L168.437941,68.2455079 L167.471549,68.2455079 L167.471549,66.5877646 L170.684861,66.5877646 L170.39847,65.7720721 L171.508763,65.6379276 Z M144.94733,65.798901 L145.026134,65.8857375 C145.164579,66.0406487 145.338511,66.2464414 145.547387,66.5025711 L145.730349,66.7277926 C145.908285,66.947719 146.071143,67.1517598 146.218923,67.339915 L145.493307,68.0478213 L145.375549,67.8866823 C145.209399,67.6622007 145.006772,67.399221 144.76863,67.0979843 L144.231589,66.390078 L144.94733,65.798901 Z M54.595103,42.0515633 L54.6216977,42.5498533 C54.8379063,46.6807627 54.9195756,50.2660442 54.9282307,52.7108266 L54.9282986,53.5406508 C54.9263828,54.05965 54.9206867,54.5088446 54.9120607,54.8800113 L55.0305671,54.8800113 L55.1109021,54.6714977 C56.0456023,52.253375 57.8050018,47.9686324 60.4550585,42.0515633 L66.8562874,42.0515633 L58.0783459,59.2215855 L57.902766,59.5667138 C54.7668591,65.6852931 52.9315488,66.7672826 48.4882922,66.8367632 L48.2387367,66.8396071 L47.9836662,66.840521 L47.7630772,66.8375369 C47.0486315,66.8198722 45.894802,66.725957 45.2392074,66.6141228 L46.2455717,61.9082405 L46.3640092,61.9293109 C46.6676113,61.9779603 47.1521812,62.0212042 47.6126281,62.0212042 L47.8547513,62.0165455 C49.2681972,61.9609217 49.9822372,61.4122651 50.421513,60.6435169 L48.2785215,42.0515633 L54.595103,42.0515633 Z M36.9103677,36 C42.6400602,36 46.1849077,38.6565313 46.2634417,43.2230917 L39.8655046,43.2230917 L39.8598184,43.1176871 C39.788767,42.0506248 39.2751568,40.6131579 36.8012666,40.6131579 L36.6178125,40.6163191 C35.1668408,40.6669558 34.1245258,41.3273149 34.1245258,42.6973395 L34.1276282,42.8106251 C34.185938,43.8548314 35.0772962,44.537951 37.7375615,45.4014097 L38.0826073,45.5152201 C43.0771713,47.1933289 45.1691382,49.2693937 45.1691382,52.6414459 L45.1662203,52.8717644 C45.0552863,57.2269661 41.7781723,60.3822882 34.8148729,60.3822882 L34.4713419,60.3793862 C28.2304647,60.2731172 25.1339412,57.2559487 25,52.592495 L31.410164,52.592495 L31.4294347,52.7802029 C31.6488912,54.5753402 32.8328056,55.8011367 35.1948459,55.8011367 L35.3999389,55.7985366 C37.2190736,55.751595 38.312694,55.0652752 38.312694,53.4336044 L38.3088335,53.2797295 C38.2365325,51.8681131 37.1419645,51.1341262 34.4621751,50.2588518 L34.1245539,50.1466565 C29.3523334,48.5314521 27.454306,46.6056933 27.454306,43.541273 L27.4574161,43.3090199 C27.5693849,39.1470175 30.7049395,36 36.9103677,36 Z M75.3798163,41.6623089 L75.7035454,41.6653124 C80.9318807,41.7631718 83.2605982,44.2399727 83.150453,47.2714308 L77.3398752,47.2714308 L77.3353703,47.1447002 C77.2789552,46.2272055 76.7029542,45.5765035 75.2608396,45.5765035 L75.1235421,45.5787323 C74.3005156,45.6058475 73.5053453,45.8870053 73.5053453,46.7823918 L73.5091998,46.8676671 C73.5737172,47.5629085 74.455079,47.8828472 76.6721008,48.5300354 L76.9883953,48.6255391 C81.0303137,49.8792453 82.3575885,51.6088512 82.3575885,54.0167798 L82.3532162,54.2659298 C82.2020728,58.5368772 78.1547357,60.3342786 73.6986237,60.3342786 L73.3857221,60.3315325 C68.4255473,60.2437361 65.6896305,58.0546102 65.7831458,54.3194286 L71.7131705,54.3194286 L71.731608,54.4847374 C71.8922496,55.6156169 72.7144901,56.1941565 74.0997586,56.1941565 L74.2998493,56.1900724 C75.5330023,56.1384536 76.119541,55.5996846 76.119541,54.6964452 L76.1155148,54.5930186 C76.0535384,53.8156211 75.2705192,53.3888895 73.3840173,52.8476048 L73.0667617,52.7574275 C68.6998156,51.4892801 67.4525817,49.9790037 67.4525817,47.6945742 C67.4525817,44.3960321 70.0559614,41.6623089 75.3798163,41.6623089 Z M107.343167,41.6623089 L107.653868,41.665474 C113.081882,41.7770757 115.281688,44.8278309 115.281688,48.8788111 L115.273879,49.312939 C115.232815,50.4530518 115.034538,51.4527115 114.791673,52.3129096 L103.500172,52.3129096 L103.453359,52.5380135 C103.411057,52.7592636 103.382842,52.972571 103.373672,53.2105009 L103.369357,53.3834189 C103.352339,54.8717889 103.871385,56.0816634 105.428724,56.0816634 L105.632338,56.0757178 C106.88986,56.0008484 107.54531,55.2273043 107.97285,54.2332937 L114.338809,54.2332937 L114.269353,54.4323222 C113.167883,57.4802942 110.381961,60.3342786 104.971627,60.3342786 L104.660185,60.3308226 C99.2202495,60.2090014 97.0707277,56.8820675 97.0707277,52.8038314 C97.0707277,48.2316228 99.6661128,41.6623089 107.343167,41.6623089 Z M95.2512775,37.4129885 L94.2735994,42.0515633 L97.2861084,42.0515633 L96.3498135,46.3540708 L93.3377747,46.3540708 L91.6833872,54.1561018 L91.6569069,54.2863431 C91.469894,55.2657004 91.661128,55.8030194 92.9338182,55.8030194 L93.2688443,55.7986803 C93.6021217,55.7898109 93.9324231,55.7667769 94.2801831,55.7244155 L93.4341788,59.8104091 L93.104673,59.898757 C91.9785029,60.167587 90.5959666,60.1874257 89.6114055,60.1874257 L89.3552386,60.1846914 C85.2428442,60.0955252 84.6271373,57.8332419 85.3211901,54.52041 L87.0447064,46.3540708 L84.6068596,46.3540708 L85.5431545,42.0515633 L88.0167414,42.0515633 L89.0517917,37.4129885 L95.2512775,37.4129885 Z M140.79114,41.6623089 L140.985743,41.6645748 C144.203493,41.7402198 146.12879,43.7156562 145.12556,48.4575503 L142.693827,59.9450243 L136.525379,59.9450243 L138.868702,48.8661026 L138.89624,48.7252216 C139.130282,47.4646753 138.980071,46.4138475 137.492241,46.4138475 L137.320217,46.4186922 C135.917027,46.499426 135.265162,47.588906 134.832429,49.665792 L132.658871,59.9450243 L126.433991,59.9450243 L128.810703,48.6834779 L128.83716,48.5491851 C129.039904,47.4342903 128.790789,46.4364402 127.434712,46.4364402 L127.277884,46.4401176 C125.891807,46.5065347 125.185222,47.4786319 124.696837,49.845122 L122.567013,59.9450243 L116.330376,59.9450243 L119.01229,47.2629585 L119.086622,46.9007434 C119.52206,44.7783126 119.770123,43.5563809 119.971773,42.4260552 L120.037464,42.0515633 L126.215788,42.0515633 L126.192669,42.2296457 C126.13386,42.6787843 126.041791,43.3478813 125.93316,43.9149948 L126.093592,43.7410987 C127.281059,42.4852681 128.718245,41.6623089 130.967332,41.6623089 L131.233924,41.6665423 C133.669801,41.7451787 134.650794,42.9084973 135.003135,44.2477672 L135.15197,44.0929304 C136.407966,42.8076825 138.06542,41.6623089 140.79114,41.6623089 Z M107.302254,45.7643058 L107.111346,45.7696591 C105.608816,45.8551588 104.697783,46.9611193 104.220146,48.8218585 L109.206822,48.8218585 L109.247107,48.6180417 C109.291168,48.3581046 109.298994,48.1440759 109.298994,47.9595684 L109.296495,47.8123394 C109.257859,46.6915378 108.763775,45.7643058 107.302254,45.7643058 Z" id="logo-返佣宝"></path>
        </g>
    </g>
</svg>