<?xml version="1.0" encoding="UTF-8"?>
<svg width="163px" height="40px" viewBox="0 0 163 40" version="1.1" xmlns="http://www.w3.org/2000/svg" xmlns:xlink="http://www.w3.org/1999/xlink">
    <title>形状结合</title>
    <defs>
        <linearGradient x1="6.74778475%" y1="48.9576835%" x2="100%" y2="51.9603454%" id="linearGradient-1">
            <stop stop-color="#CDB895" offset="0%"></stop>
            <stop stop-color="#F1E0CA" offset="10.8188199%"></stop>
            <stop stop-color="#F4E7D7" offset="22.4070254%"></stop>
            <stop stop-color="#F0CEA1" offset="44.4844513%"></stop>
            <stop stop-color="#D4C8BC" offset="62.3097254%"></stop>
            <stop stop-color="#FFEAC6" offset="73.5509166%"></stop>
            <stop stop-color="#F5D6B5" offset="83.7151186%"></stop>
            <stop stop-color="#C1A488" offset="100%"></stop>
        </linearGradient>
        <path d="M161.960863,27.113658 L161.997994,27.1196564 C162.044625,27.1352153 162.078063,27.1792711 162.078063,27.2308579 L162.078063,27.9848911 L162.072109,28.0220712 C162.056656,28.0688232 162.012826,28.1025617 161.960863,28.1025617 L115.243755,28.1025617 L115.243755,39.0106257 L162.136898,39.0106257 L162.174078,39.0166316 C162.22083,39.0322206 162.254569,39.0764271 162.254569,39.1287669 L162.254569,39.8823294 L162.248566,39.9192799 C162.232992,39.9657908 162.188861,39.9995293 162.136898,39.9995293 L35.3863714,40 L35.2952751,39.9918944 C35.0284363,39.9438947 34.8248473,39.6884553 34.8248473,39.3796406 L34.8248473,27.7335467 L34.8321951,27.6330386 C34.8757046,27.3385971 35.1072097,27.113658 35.3863714,27.113658 L161.960863,27.113658 Z M132.956474,29.869974 L132.956474,33.1030912 L138.476166,33.1030912 L138.476166,34.0854053 L135.269878,34.0854053 L135.39226,34.3294468 C135.687851,34.8847196 136.053622,35.3408917 136.488945,35.6979631 L136.684204,35.8485226 C137.160498,36.1944742 137.781615,36.5029476 138.547239,36.773943 L138.038431,37.6936564 L137.727764,37.5690314 C136.917684,37.2269428 136.254545,36.8068385 135.738677,36.3093795 L135.548364,36.1161034 C135.049226,35.5827563 134.616989,34.905857 134.251321,34.0854053 L132.956474,34.0854053 L132.956474,36.6845134 L134.858972,35.9163597 L134.939458,36.8902016 L132.072061,38.0334891 L131.679042,37.113305 L131.765294,37.0682813 C131.843575,37.0230517 131.898027,36.9771601 131.929445,36.9302096 L131.964083,36.8612808 C131.982632,36.8110746 131.992045,36.7522916 131.992045,36.6845134 L131.992045,34.0854053 L130.741442,34.0854053 L130.741442,33.1030912 L131.992045,33.1030912 L131.992045,29.869974 L132.956474,29.869974 Z M125.257993,29.6374569 L125.336683,29.7107962 C125.560979,29.9216154 125.900893,30.2544169 126.356095,30.7092007 L125.918831,31.1379923 L126.936917,31.1379923 L126.936917,32.0671193 L124.275208,32.0671193 L124.307841,32.3968751 C124.40706,33.3625502 124.518174,34.1159055 124.64187,34.6572844 L124.7763,34.4337388 C125.086105,33.8958601 125.368838,33.2440606 125.624184,32.478025 L126.499182,32.8258593 L126.369172,33.1794848 C126.193822,33.6412506 126.01052,34.0640363 125.819988,34.4473601 L125.634053,34.8022325 C125.440117,35.1522657 125.222221,35.4878034 124.980761,35.8090442 L125.055878,35.9843037 C125.156024,36.2084087 125.25611,36.3941965 125.355895,36.5414259 L125.42883,36.6409279 C125.572505,36.8246999 125.702989,36.9170305 125.819988,36.9170305 L125.863945,36.9092421 C125.907034,36.8936434 125.947542,36.8545474 125.985668,36.7913583 L126.015584,36.7330163 C126.055423,36.6437146 126.09496,36.508384 126.132991,36.3272655 L126.196499,36.0088227 C126.237535,35.7904261 126.275922,35.5598963 126.31138,35.3176518 L127.106362,35.5948837 L127.09653,35.6606223 C127.065006,35.8576813 126.991045,36.2287882 126.874316,36.773943 L126.828495,36.9568162 C126.731949,37.3058429 126.60596,37.5545361 126.450231,37.7025993 L126.355816,37.7817895 C126.192493,37.9018026 125.999318,37.9619453 125.775743,37.9619453 L125.635326,37.9518991 C125.451782,37.9251191 125.282939,37.8448396 125.128555,37.7115423 L125.043596,37.6331634 C124.870371,37.462071 124.677238,37.2050208 124.46301,36.862902 L124.433975,36.8167678 C124.402733,36.7644117 124.364873,36.6934563 124.320393,36.6044974 L124.080809,36.846639 C123.751828,37.1685255 123.384771,37.4865561 122.980361,37.800972 L122.31058,37.0775332 L122.625976,36.8357615 C123.136797,36.4315085 123.573421,36.0207728 123.935846,35.6038266 L123.877295,35.3937359 C123.66624,34.5951805 123.49513,33.4861874 123.363967,32.0671193 L120.658485,32.0671193 L120.658485,33.0941482 L122.864102,33.0941482 L122.863566,33.1579309 C122.860346,33.3741478 122.842639,33.8141981 122.810444,34.4784251 L122.799883,34.6915741 C122.768714,35.3058188 122.742195,35.6932563 122.721015,35.8542297 L122.703336,36.0250347 C122.674643,36.2425426 122.625466,36.4191427 122.555805,36.5550757 L122.498028,36.6514752 C122.412868,36.772964 122.295236,36.8661968 122.14537,36.9302096 L122.023983,36.9736479 C121.850516,37.0250991 121.630538,37.0507043 121.363567,37.0507043 L120.747444,37.0507043 L120.559641,36.1220479 L121.13152,36.1220479 L121.249059,36.1205869 C121.396063,36.116701 121.504207,36.1051034 121.573491,36.0862761 L121.632878,36.0646541 C121.687043,36.0390608 121.725522,36.0015533 121.748114,35.9521316 L121.769214,35.893539 C121.789181,35.8254298 121.805773,35.7287928 121.819187,35.6038266 L121.824343,35.5427313 C121.834874,35.4056598 121.846689,35.1792711 121.859195,34.8629726 L121.867668,34.651286 C121.878211,34.3823871 121.885742,34.1669275 121.89026,34.0053893 L120.658485,34.0053893 L120.651535,34.3310427 C120.62981,35.0744267 120.569526,35.7024934 120.470682,36.215243 L120.392673,36.5682586 C120.275387,37.0400857 120.104962,37.5164915 119.880917,37.9977172 L118.952261,37.5599826 L119.074322,37.3172197 C119.228495,36.9985715 119.348387,36.7000459 119.43424,36.4214019 L119.494679,36.2069967 C119.570003,35.9142699 119.624301,35.5941306 119.657814,35.2465787 L119.674323,35.0521773 C119.704853,34.6469486 119.720415,34.1431648 119.720415,33.5408258 L119.720415,31.1379923 L123.28348,31.1379923 L123.185578,29.8073732 L124.114235,29.8073732 L124.117287,29.8855769 C124.12771,30.1173205 124.156439,30.5346821 124.204135,31.1379923 L125.52534,31.1379923 L125.298994,30.8992754 C125.073662,30.6671923 124.851441,30.4550322 124.632927,30.2629938 L125.257993,29.6374569 Z M144.648224,29.7984303 L144.648224,30.4413824 L147.81827,30.4413824 L147.81827,29.7984303 L148.747397,29.7984303 L148.747397,30.4413824 L149.828083,30.4413824 L149.828083,31.1827071 L148.747397,31.1827071 L148.747397,33.8980737 L150.12273,33.8980737 L150.12273,34.6393985 L148.265418,34.6393985 L148.462759,34.8373425 C148.665763,35.0277703 148.885777,35.1956274 149.123001,35.3407152 L149.32062,35.4562696 C149.595679,35.6096443 149.916948,35.7601873 150.283704,35.9074168 L149.872798,36.7202852 L149.560498,36.5726479 C149.055288,36.3237092 148.62651,36.0603885 148.27389,35.7826859 L148.27389,36.3988092 L146.711225,36.3988092 L146.711225,37.0154031 L149.622866,37.0154031 L149.622866,37.800972 L142.825742,37.800972 L142.825742,37.0154031 L145.782568,37.0154031 L145.782568,36.3988092 L144.147888,36.3988092 L144.147888,35.8179871 L143.86531,36.0313682 C143.478522,36.3096808 143.051669,36.5631715 142.584752,36.7913583 L142.174317,35.9610746 L142.458593,35.8319178 C143.196959,35.4815596 143.777723,35.0837226 144.201546,34.6393985 L142.343763,34.6393985 L142.343763,33.8980737 L143.710154,33.8980737 L143.710154,31.1827071 L142.63841,31.1827071 L142.63841,30.4413824 L143.710154,30.4413824 L143.710154,29.7984303 L144.648224,29.7984303 Z M158.303661,29.8073732 L158.485786,30.0411391 C158.862082,30.5013512 159.310652,30.9176457 159.831496,31.2900227 L160.096843,31.4714838 C160.638188,31.824545 161.243408,32.1184237 161.911912,32.3528235 L161.465705,33.2635939 L161.149774,33.1358992 C160.834932,33.0008943 160.523399,32.8439806 160.215573,32.6653566 L160.215573,33.2461786 L158.375204,33.2461786 L158.375204,34.0590471 L161.215302,34.0590471 L161.215302,34.9698175 L160.143558,34.9698175 L160.777567,35.434381 L160.429262,35.8895308 L160.308621,36.0483402 C160.037213,36.4039573 159.836438,36.6549781 159.706294,36.8007719 L161.697751,36.8007719 L161.697751,37.7025993 L154.025629,37.7025993 L154.025629,36.8007719 L156.008613,36.8007719 L155.859878,36.6065538 C155.474128,36.1054172 155.175401,35.7384941 154.963699,35.505454 L155.570408,34.9698175 L154.490192,34.9698175 L154.490192,34.0590471 L157.339233,34.0590471 L157.339233,33.2461786 L155.508278,33.2461786 L155.508278,32.6832425 L155.220956,32.8374057 C154.927338,32.9893332 154.614923,33.1345093 154.284504,33.2725369 L153.802996,32.3796524 L154.135475,32.2516168 C155.552366,31.6782492 156.659164,30.8637526 157.455491,29.8073732 L158.303661,29.8073732 Z M96.6682748,30.0860172 L96.3944921,30.0926582 C95.7654987,30.1236497 95.2053352,30.2631114 94.7140016,30.5110434 L94.5094331,30.6227707 C94.046118,30.8962307 93.6809127,31.2590165 93.4144476,31.7108128 L93.3073959,31.9085214 C93.074284,32.3793656 92.9578857,32.9168775 92.9578857,33.5210572 L92.965013,33.7804785 C92.9982761,34.3762282 93.1479825,34.9050398 93.4144476,35.3675441 L93.5346904,35.5599806 C93.8293541,35.9959271 94.2226681,36.3403857 94.7140016,36.5936717 C95.2755257,36.8831413 95.9269501,37.0276408 96.6682748,37.0276408 L96.9433495,37.0198767 C97.395466,36.9940001 97.8158769,36.9034591 98.2045821,36.7485262 L98.3987818,36.6644099 C98.776173,36.4873071 99.087515,36.2569993 99.3328077,35.973783 L98.8371792,35.664074 L98.7035446,35.800184 C98.4718643,36.0177656 98.1954038,36.1890417 97.8741631,36.314557 L97.6404448,36.3958909 C97.3255922,36.4922867 96.9978466,36.5404846 96.6574491,36.5404846 L96.400742,36.5329029 C95.8963653,36.5025706 95.4461817,36.3811922 95.0495982,36.1681748 L94.8579948,36.0556433 C94.4877667,35.8177278 94.1954441,35.5026972 93.9816199,35.1105515 L93.8823443,34.9100422 C93.6990663,34.5001533 93.6074274,34.0370595 93.6074274,33.5210572 L93.6150639,33.2726837 C93.6456103,32.7847082 93.7677956,32.3493942 93.9816199,31.9673346 L94.0950708,31.7825568 C94.3350447,31.4255024 94.6534181,31.1434388 95.0495982,30.9360696 L95.2523593,30.8397649 C95.666826,30.6619211 96.1349917,30.5727028 96.6574491,30.5727028 L96.8993008,30.5821277 C97.2215337,30.6072509 97.5428027,30.68256 97.8628667,30.8075733 L98.0566309,30.8904243 C98.3691117,31.035998 98.6292945,31.2191066 98.8371792,31.4411118 L99.3441041,31.139875 L99.18631,30.9806667 C98.911364,30.7253215 98.5766565,30.5199864 98.18246,30.3646612 L97.9430832,30.2794655 C97.5397563,30.1504092 97.1146386,30.0860172 96.6682748,30.0860172 Z M57.951355,34.8328489 L56.6560371,34.8328489 L55.7429133,36.913265 L57.1596672,36.913265 L57.951355,34.8328489 Z M62.3385854,34.8328489 L61.0343245,34.8328489 L61.07951,34.9406352 L61.0969253,34.9881741 L61.1341092,35.0700728 L61.9107351,36.913265 L63.2912465,36.913265 L62.3385854,34.8328489 Z M47.6532954,30.2050998 L44.316628,30.2050998 L44.316628,36.913265 L45.5455797,36.913265 L45.5455797,34.0096255 L47.1463705,34.0096255 L47.3313319,34.011914 C48.6408244,34.045545 48.929786,34.4512892 48.929786,35.324712 L48.9298641,35.6692689 C48.930861,36.2170735 48.9428082,36.6555403 49.0771095,36.913265 L50.2721721,36.913265 L50.2286487,36.792888 C50.1425212,36.484569 50.1587376,35.9967876 50.1587376,35.594413 L50.1587376,35.2983538 L50.1532955,35.1101835 C50.092168,34.0835255 49.5254868,33.7221693 48.9302566,33.5883647 L49.071361,33.5503181 C49.767413,33.3401588 50.3126508,32.8308015 50.3126508,32.008284 L50.3078373,31.8792507 C50.2340958,30.9019288 49.3145884,30.2050998 47.6532954,30.2050998 Z M57.0542344,30.2050998 L50.4816257,30.2050998 L50.4816257,31.0471506 L53.1452173,31.0471506 L53.1452173,36.913265 L54.3901722,36.913265 L54.3901722,31.0471506 L57.0542344,31.0471506 L57.0542344,30.2050998 Z M77.6785945,30.2098067 L77.0507043,30.2098067 L77.0507043,36.0269701 L77.0069308,36.0269701 L72.2723368,30.2098067 L72.2615111,31.0866879 L76.9956344,36.9033807 L77.6785945,36.9033807 L77.6785945,30.2098067 Z M82.4348399,30.2098067 L81.7636468,30.2098067 L78.7465728,36.9033807 L79.429533,36.9033807 L80.4862149,34.5485568 L83.7230976,34.5485568 L84.7802502,36.9033807 L85.4519139,36.9033807 L82.4348399,30.2098067 Z M68.9502606,30.2098067 L64.1831896,30.2098067 L64.1831896,36.9033807 L64.8214349,36.9033807 L64.8214349,33.7869927 L68.6532601,33.7869927 L68.6532601,33.3003071 L64.8214349,33.3003071 L64.8214349,30.6969629 L68.9502606,30.6969629 L68.9502606,30.2098067 Z M87.2023817,30.2098067 L86.5085958,30.2098067 L86.5085958,36.9033807 L87.1473118,36.9033807 L87.1473118,31.0866879 L87.1910853,31.0866879 L91.9261499,36.9033807 L91.9369756,36.0269701 L87.2023817,30.2098067 Z M105.608886,30.2098067 L100.742031,30.2098067 L100.742031,36.9033807 L105.751974,36.9033807 L105.751974,36.4166951 L101.380747,36.4166951 L101.380747,33.6542603 L105.366485,33.6542603 L105.366485,33.176047 L101.380747,33.176047 L101.380747,30.6969629 L105.608886,30.6969629 L105.608886,30.2098067 Z M70.9760776,30.2098067 L70.3378323,30.2098067 L70.3378323,36.9033807 L70.9760776,36.9033807 L70.9760776,30.2098067 Z M159.991998,34.9698175 L158.375204,34.9698175 L158.375204,36.8007719 L159.527435,36.8007719 L158.956026,36.2740783 L159.157618,36.0388915 C159.428234,35.7167339 159.7062,35.3602956 159.991998,34.9698175 Z M157.339233,34.9698175 L155.650895,34.9698175 L155.716654,35.0423398 C155.928635,35.2792205 156.272949,35.6899145 156.749938,36.2740783 L156.098043,36.8007719 L157.339233,36.8007719 L157.339233,34.9698175 Z M147.193674,34.6393985 L145.254933,34.6393985 C145.022887,34.9848793 144.713178,35.3270654 144.326748,35.6664274 L145.782568,35.6664274 L145.782568,34.9877034 L146.711225,34.9877034 L146.711225,35.6664274 L148.131744,35.6664274 L147.92818,35.4852862 C147.662097,35.2356966 147.417342,34.9538143 147.193674,34.6393985 Z M60.220044,30.2050998 L58.6870315,30.2050998 L58.3429627,30.9892567 L56.9087935,34.2567337 L58.170693,34.2567337 L59.1539484,31.6740995 L59.2171215,31.5146286 C59.2978078,31.3093207 59.3641552,31.1334738 59.4142358,30.9892567 L59.52061,31.2420131 L59.5773479,31.3833873 C59.6578986,31.5809232 59.7582105,31.8152101 59.8802113,32.0934775 L60.7914524,34.2567337 L62.0750032,34.2567337 L60.8832355,31.6533895 L60.220044,30.2050998 Z M82.1270136,30.9624278 L83.5136439,34.0614005 L80.6956685,34.0614005 L82.0822988,30.9624278 L82.1270136,30.9624278 Z M147.81874,33.3977384 L144.648224,33.3977384 L144.648224,33.8980737 L147.81874,33.8980737 L147.81874,33.3977384 Z M47.4047751,31.030206 L47.5908584,31.0341895 C48.5537368,31.0765821 49.0432204,31.455786 49.0432204,32.097243 L49.038315,32.2135719 C48.9825576,32.8544765 48.4487224,33.1840486 47.2960474,33.1840486 L45.5455797,33.1840486 L45.5455797,31.030206 L47.4047751,31.030206 Z M147.81874,32.2996364 L144.648224,32.2996364 L144.648224,32.7726722 L147.81874,32.7726722 L147.81874,32.2996364 Z M137.297106,29.9146888 L137.752727,30.8522881 L137.415636,31.0648822 C136.955015,31.3459963 136.44969,31.6177118 135.89918,31.8797877 L135.380951,32.1192989 C134.860237,32.3526176 134.332043,32.567337 133.796171,32.7632585 L133.438452,31.8261299 L133.938604,31.6426374 C134.438358,31.4500253 134.936987,31.2300107 135.435087,30.9821964 C136.098749,30.6517774 136.719579,30.2959415 137.297106,29.9146888 Z M157.874869,30.8348729 L157.696116,31.032474 C157.262666,31.4908791 156.714755,31.9306803 156.053328,32.3528235 L159.696881,32.3528235 L159.420499,32.1728096 C158.791744,31.7495337 158.276008,31.3035548 157.874869,30.8348729 Z M147.81874,31.1827071 L144.648224,31.1827071 L144.648224,31.6825718 L147.81874,31.6825718 L147.81874,31.1827071 Z M29.6214537,6.05156325 L29.6480721,6.54985332 C29.9423776,12.1678901 29.9876177,16.7767335 29.9386936,18.8800113 L30.0573056,18.8800113 L30.1377121,18.6714977 C31.0732445,16.253375 32.8342105,11.9686324 35.4866267,6.05156325 L41.8935552,6.05156325 L33.107798,23.2215855 L32.9320618,23.5667138 C29.6771146,29.9119072 27.8221341,30.840521 23.0041302,30.840521 L22.7833449,30.8375369 C22.0682631,30.8198722 20.9134062,30.725957 20.2572279,30.6141228 L21.2644882,25.9082405 L21.3830312,25.9293109 C21.6869036,25.9779603 22.171905,26.0212042 22.6327618,26.0212042 L22.8751005,26.0165455 C24.289805,25.9609217 25.0044808,25.4122651 25.4441477,24.6435169 L23.2992481,6.05156325 L29.6214537,6.05156325 Z M11.9209724,0 C17.6557664,0 21.2037702,2.65653131 21.2823741,7.22309168 L14.8787405,7.22309168 L14.8730492,7.11768709 C14.8019345,6.05062483 14.2878671,4.61315793 11.8117741,4.61315793 L11.6281567,4.6163191 C10.1758931,4.66695579 9.13265006,5.32731487 9.13265006,6.69733947 L9.13575524,6.81062671 C9.19411692,7.85486271 10.0862688,8.53840545 12.7489027,9.40140969 L13.0942557,9.51522007 C18.0932668,11.1933286 20.1870962,13.2693833 20.1870962,16.6409753 L20.1841757,16.8713177 C20.073143,21.2269661 16.7931112,24.3822882 9.82361178,24.3822882 L9.47977496,24.3793862 C3.233341,24.2731172 0.134060426,21.2559487 0,16.592495 L6.41587141,16.592495 L6.43515933,16.7802029 C6.65481122,18.5753402 7.83977972,19.8011367 10.2039231,19.8011367 L10.4091988,19.7985366 C12.2299532,19.751595 13.3245473,19.0652752 13.3245473,17.4336044 L13.3206834,17.2797295 C13.248318,15.8681131 12.1527754,15.1341262 9.4706,14.2588518 L9.13267813,14.1466565 C4.35620863,12.5314521 2.4564913,10.6056933 2.4564913,7.54127296 L2.45960416,7.30901992 C2.57167264,3.1470175 5.71001901,0 11.9209724,0 Z M50.4246732,5.66230893 L50.7486905,5.66531238 C55.981681,5.76317183 58.3124719,8.2399727 58.2022287,11.2714308 L52.3864773,11.2714308 L52.3819683,11.1447002 C52.325503,10.2272055 51.7489892,9.57650354 50.3055905,9.57650354 L50.1681708,9.57873226 C49.3444115,9.60584752 48.5485332,9.88700526 48.5485332,10.7823918 L48.5523911,10.8676671 C48.616966,11.5629078 49.4991125,11.8828291 51.7181083,12.5295647 L52.0346845,12.6251029 C56.0802016,13.8792453 57.4086582,15.6088512 57.4086582,18.0167798 L57.404282,18.2659298 C57.2530041,22.5368772 53.2020633,24.3342786 48.7419837,24.3342786 L48.4288035,24.3315319 C43.4642123,24.2437173 40.7258595,22.0541491 40.819458,18.3194286 L46.754292,18.3194286 L46.7728073,18.4847374 C46.9340013,19.6156169 47.7569739,20.1941565 49.1434758,20.1941565 L49.3437446,20.1900724 C50.5779956,20.1384547 51.1650565,19.5997082 51.1650565,18.6969159 L51.1610267,18.5934329 C51.0989951,17.8156211 50.3152787,17.3888895 48.4270972,16.8476048 L48.1095591,16.7574275 C43.7387248,15.4892801 42.4903804,13.9790037 42.4903804,11.6945742 C42.4903804,8.39603215 45.096078,5.66230893 50.4246732,5.66230893 Z M82.4164833,5.66230893 L82.7274607,5.66547398 C88.1603081,5.77707569 90.3620724,8.82783093 90.3620724,12.8788111 L90.3542561,13.312939 C90.3131563,14.4530518 90.1147027,15.4527115 89.8716214,16.3129096 L78.570067,16.3129096 L78.523212,16.5380135 C78.4808726,16.7592636 78.4526317,16.972571 78.4434534,17.2105009 L78.4391354,17.3834189 C78.4221016,18.8717889 78.9416097,20.0816634 80.5003354,20.0816634 L80.7041307,20.0757178 C81.9627726,20.0008496 82.6188061,19.2273278 83.046727,18.2337644 L89.4183543,18.2337644 L89.348836,18.4327635 C88.2463856,21.4802942 85.4579827,24.3342786 80.0428321,24.3342786 L79.7311121,24.3308226 C74.2863333,24.2090014 72.1348976,20.8820675 72.1348976,16.8038314 C72.1348976,12.2316228 74.7325936,5.66230893 82.4164833,5.66230893 Z M70.3138275,1.41298848 L69.3352788,6.05156325 L72.3504701,6.05156325 L71.4133415,10.3540708 L68.3986209,10.3540708 L66.7427603,18.1561018 L66.7162565,18.2863431 C66.5290771,19.2657004 66.7204814,19.8030194 67.9943047,19.8030194 L68.3296292,19.7986803 C68.6632032,19.7898109 68.9937988,19.7667769 69.3418684,19.7244155 L68.4951108,23.8104091 L68.1653117,23.898757 C67.0381388,24.167587 65.6543715,24.1874257 64.6689338,24.1874257 L64.4125388,24.1846914 C60.2964828,24.0955252 59.6802278,21.8332419 60.3748985,18.52041 L62.0999494,10.3540708 L59.659932,10.3540708 L60.5970606,6.05156325 L63.0728499,6.05156325 L64.1088218,1.41298848 L70.3138275,1.41298848 Z M115.894238,5.66230893 L116.089014,5.66457482 C119.309629,5.7402198 121.236639,7.71565616 120.232517,12.4575503 L117.798619,23.9450243 L111.624678,23.9450243 L113.969617,12.8661026 L113.997228,12.7252216 C114.231901,11.4646753 114.081556,10.4138475 112.592401,10.4138475 L112.420224,10.4186922 C111.015785,10.499426 110.36334,11.588906 109.930221,13.665792 L107.754727,23.9450243 L101.524305,23.9450243 L103.903134,12.6834779 L103.929613,12.5491851 C104.132538,11.4342903 103.883202,10.4364402 102.525917,10.4364402 L102.368949,10.4401176 C100.981639,10.5065347 100.274425,11.4786319 99.7856042,13.845122 L97.6538837,23.9450243 L91.4116941,23.9450243 L94.0959957,11.2629585 L94.170394,10.9007434 C94.6546444,8.54248694 94.90734,7.29595779 95.1216126,6.05156325 L101.305908,6.05156325 L101.282769,6.22962644 C101.223907,6.67868132 101.131756,7.34746949 101.023028,7.91499476 L101.183603,7.74109869 C102.372127,6.48526814 103.810593,5.66230893 106.061683,5.66230893 L106.328512,5.66654229 C108.766557,5.74517869 109.748424,6.90849732 110.101079,8.2477672 L110.250047,8.0929304 C111.507161,6.80768246 113.16609,5.66230893 115.894238,5.66230893 Z M82.3755339,9.7643058 L82.1844556,9.76965917 C80.6805879,9.85515955 79.7687443,10.9611381 79.2906817,12.8223292 L84.2817975,12.8223292 L84.3221181,12.6182827 C84.3662191,12.3581046 84.3740513,12.1440759 84.3740513,11.9595684 L84.3715503,11.8123394 C84.3328796,10.6915378 83.8383559,9.7643058 82.3755339,9.7643058 Z" id="path-2"></path>
    </defs>
    <g id="页面-1" stroke="none" stroke-width="1" fill="none" fill-rule="evenodd">
        <mask id="mask-3" fill="white">
            <use xlink:href="#path-2"></use>
        </mask>
        <use id="形状结合" fill="url(#linearGradient-1)" xlink:href="#path-2"></use>
    </g>
</svg>