<?xml version="1.0" encoding="UTF-8"?>
<svg width="117px" height="48px" viewBox="0 0 117 48" version="1.1" xmlns="http://www.w3.org/2000/svg" xmlns:xlink="http://www.w3.org/1999/xlink">
    <title>VENTURES-LOGO</title>
    <defs>
        <linearGradient x1="6.74778475%" y1="47.0964708%" x2="100%" y2="55.4608365%" id="linearGradient-1">
            <stop stop-color="#CDB895" offset="0%"></stop>
            <stop stop-color="#F1E0CA" offset="10.8188199%"></stop>
            <stop stop-color="#F4E7D7" offset="22.4070254%"></stop>
            <stop stop-color="#D4C8BC" offset="31.772855%"></stop>
            <stop stop-color="#CBBA9E" offset="44.8810537%"></stop>
            <stop stop-color="#A9896E" offset="63.3871936%"></stop>
            <stop stop-color="#F1CD8E" offset="73.1247641%"></stop>
            <stop stop-color="#F5D6B5" offset="83.7151186%"></stop>
            <stop stop-color="#9D8064" offset="100%"></stop>
        </linearGradient>
    </defs>
    <g id="页面-1" stroke="none" stroke-width="1" fill="none" fill-rule="evenodd">
        <g id="1.策略-1.策略总览" transform="translate(-42, -32)" fill="url(#linearGradient-1)">
            <path d="M53.7635847,32.21141 C53.8161556,32.21141 53.8584854,32.2537398 53.8584854,32.3059693 L53.8584854,61.1789813 C53.8584854,63.114545 54.2135094,64.3424503 54.915706,64.8572351 C55.6120993,65.3703131 57.1189032,65.7123651 59.4337281,65.8847566 L59.5378458,65.8847566 C59.5900753,65.8847566 59.632405,65.9270864 59.632405,65.9796572 L59.632405,66.7678789 C59.632405,66.8201084 59.5900753,66.8627795 59.5378458,66.8627795 L42.0897801,66.8627795 C42.0399402,66.8590245 42,66.8184015 42,66.7678789 L42,65.9796572 C42,65.9270864 42.0423298,65.8847566 42.0949007,65.8847566 L42.1788775,65.8847566 C44.536715,65.6946139 46.0107474,65.3057943 46.5951716,64.7223943 C47.1864232,64.1263635 47.4830731,62.746549 47.4830731,60.5710027 L47.4830731,37.8890635 C47.4830731,36.0473764 47.1512621,34.8430256 46.488323,34.2695253 C45.8315286,33.7049005 44.3988018,33.3450973 42.1870704,33.1894329 L42.0949007,33.1894329 C42.0423298,33.1894329 42,33.1467618 42,33.0945323 L42,32.3059693 C42,32.2554466 42.0399402,32.215165 42.0897801,32.2124341 L53.7635847,32.21141 Z M59.4681723,32.2111369 C63.0863451,32.2111369 66.0999529,32.5914222 68.5107026,33.3571135 C73.090854,34.8075915 75.3797349,37.4740268 75.3797349,41.3509575 C75.3797349,43.9586773 74.3614304,45.9584184 72.3299419,47.3559841 C70.2936743,48.748088 67.5326797,49.6714918 64.0370585,50.1104927 L76.9739293,63.4071668 C77.7703438,64.2138223 78.5667583,64.8105358 79.3638555,65.1788732 C80.1442257,65.5451624 81.1417066,65.7766108 82.3532262,65.8844835 L82.4208173,65.8844835 C82.4733881,65.8844835 82.5157179,65.9271546 82.5157179,65.9793841 L82.5157179,66.7679471 C82.5157179,66.8171043 82.4778259,66.8563618 82.4293515,66.8611409 L72.317994,66.8628478 L56.6156908,50.7242746 L55.2358762,50.788452 L54.9986246,50.7993759 C54.9463951,50.7990345 54.9044067,50.7567047 54.9044067,50.7048166 L54.9044067,48.9617851 C54.9044067,48.909897 54.9460537,48.8679086 54.9979418,48.8672258 C58.9185678,48.7020031 61.777194,48.3230832 63.5478763,47.7362695 C66.8775921,46.5960962 68.54245,44.4499076 68.54245,41.3041899 C68.54245,38.2748791 67.0510077,36.2051572 64.0684644,35.1001449 C62.4749527,34.5034315 60.3601702,34.2054161 57.720703,34.2054161 C56.4006281,34.2054161 55.4632281,34.2641316 54.9044067,34.3825868 L54.9044067,32.3060375 C54.9044067,32.253808 54.9467364,32.2111369 54.9993073,32.2111369 L59.4681723,32.2111369 Z M103.369966,35.4348916 C103.422537,35.4348916 103.464867,35.4772214 103.464867,35.5294509 L103.464867,61.1850577 C103.464867,63.20255 103.844128,64.4536684 104.600944,64.9390955 C105.343422,65.4108678 106.962536,65.7297067 109.448046,65.8846883 L109.556943,65.8846883 C109.609513,65.8846883 109.651843,65.9270181 109.651843,65.979589 L109.651843,66.7678106 C109.651843,66.8176505 109.613268,66.8572493 109.564453,66.8613458 L91.2663775,66.8627112 C91.2185858,66.8558839 91.1810352,66.8169678 91.1810352,66.7678106 L91.1810352,65.979589 C91.1810352,65.9270181 91.223365,65.8846883 91.2759359,65.8846883 L91.3745916,65.8846883 C93.9655843,65.7119555 95.5881124,65.3466904 96.2298866,64.7984513 C96.8842915,64.2372403 97.212006,62.8280679 97.212006,60.5709344 L97.212006,35.5294509 C97.212006,35.4772214 97.2546771,35.4348916 97.3069066,35.4348916 L103.369966,35.4348916 Z M133.320032,37.8285388 C133.336077,37.8353661 133.350755,37.8459486 133.361338,37.8613102 L133.724213,38.5856958 L134.301128,39.7402066 C134.303176,39.7436203 134.306248,39.7456685 134.308296,39.7494236 L134.660589,40.4546925 C134.670489,40.4840502 134.671855,40.5052151 134.66571,40.5250145 L134.658541,40.5393521 L128.130878,53.5673685 L141.159577,53.5673685 C141.193032,53.5680513 141.224779,53.5854611 141.241506,53.6165257 L141.603016,54.3395458 L141.859384,54.8522824 L142.221577,55.5756439 L142.224751,55.6086429 C142.22336,55.6298078 142.215091,55.6500624 142.200754,55.6657654 L127.082192,55.6657654 C125.467174,59.0535139 124.50383,61.1170911 124.19216,61.8623002 C123.880148,62.608192 123.724142,63.20354 123.724142,63.637079 C123.724142,64.5099602 124.145051,65.1111114 124.995743,65.446336 C125.491752,65.6385269 126.408329,65.7836089 127.745472,65.8873851 C127.74991,65.8867024 127.753665,65.8846542 127.758444,65.8846542 L127.952683,65.8846542 C128.004913,65.8846542 128.047243,65.9273253 128.047243,65.9795548 L128.047243,66.7677764 C128.047243,66.8179577 128.008327,66.8575566 127.959511,66.8613116 L115.662366,66.8626771 C115.612185,66.8592634 115.571903,66.8186405 115.571903,66.7677764 L115.571903,65.9795548 C115.571903,65.9273253 115.614574,65.8846542 115.666804,65.8846542 L115.811203,65.8846542 C117.329955,65.7170419 118.480711,65.2223978 119.250498,64.4000393 C120.050326,63.5500298 121.418876,61.2147227 123.353074,57.4111864 L133.1176,38.2262339 L133.320032,37.8285388 Z M137.549,32.057 L152.983175,61.35366 C154.012403,63.2960511 154.835444,64.498695 155.452299,64.9605676 C156.046964,65.4077613 157.040007,65.7129454 158.419139,65.8846542 L158.563197,65.8846542 C158.615426,65.8846542 158.658097,65.9273253 158.658097,65.9795548 L158.658097,66.7677764 C158.658097,66.8203473 158.615426,66.8626771 158.563197,66.8626771 L142.776234,66.8626771 C142.726735,66.8582393 142.687478,66.8179577 142.687478,66.7677764 L142.687478,65.9795548 C142.687478,65.9273253 142.729808,65.8846542 142.782379,65.8846542 L142.976618,65.8846542 C142.980714,65.8846542 142.984469,65.8867024 142.988907,65.8870438 C144.681074,65.7566407 145.780966,65.5948317 146.286193,65.4118577 C146.80917,65.2210323 147.074414,64.7468704 147.074414,63.9897134 C147.074414,63.7411966 146.972686,63.2960511 146.770254,62.6542769 C146.567481,62.0186473 146.286193,61.3478567 145.920245,60.6429292 L145.277446,59.3563084 L142.38639,53.5673685 L135.265086,39.3295394 L133.945352,36.6910964 C133.931356,36.6634455 133.930332,36.6381841 133.93716,36.6156538 L133.945694,36.599268 L136.25574,32.0597396 C136.273491,32.0225304 136.30558,32 136.343813,32 L137.461797,32 C137.488083,32 137.511808,32.0105824 137.528962,32.0277363 L137.547,32.054 L137.549,32.057 Z M117.994669,32.2112734 C118.046898,32.2112734 118.08957,32.2536032 118.08957,32.3058327 L118.413188,40.7833969 L118.421722,41.0127971 C118.421722,41.0291828 118.418991,41.0411307 118.414553,41.0523959 C118.399874,41.0872156 118.366079,41.1111114 118.326821,41.1111114 L116.993774,41.1111114 L116.956755,41.1036645 C116.934148,41.0940809 116.915942,41.0759504 116.906384,41.05342 C116.174829,38.2907186 115.24494,36.4855579 114.117056,35.6495446 C112.985075,34.807728 110.59788,34.3864784 106.96059,34.3864784 L103.464969,34.3864784 L97.2121084,34.3888679 L93.6888362,34.3864784 C90.2130144,34.3864784 87.84596,34.8019248 86.5914279,35.6382794 C85.3420164,36.4684895 84.4035923,38.2736501 83.7689869,41.0523959 C83.754308,41.0872156 83.7205125,41.1111114 83.6815964,41.1111114 L82.319533,41.1111114 C82.2690104,41.1090632 82.2283874,41.0680989 82.2283874,41.0168935 L82.2379458,40.7830556 L82.5871665,32.3102705 L82.594938,32.2685915 C82.6094835,32.2348919 82.642895,32.2112734 82.6820672,32.2112734 L117.994669,32.2112734 Z M127.962139,70.653651 C128.009248,70.653651 128.047482,70.6918844 128.047482,70.7389933 L128.047482,71.2858669 C128.047482,71.3329758 128.009248,71.3712092 127.962139,71.3712092 L100.325225,71.3712092 L100.325225,79.2824418 L158.572721,79.2824418 C158.61983,79.2824418 158.658063,79.3206752 158.658063,79.3677841 L158.658063,79.9146577 C158.658063,79.9617666 158.61983,80 158.572721,80 L42.4071511,80 C42.1821888,80 42.000239,79.7985921 42.000239,79.5504167 L42.000239,71.1035757 C42.000239,70.8554002 42.1821888,70.653651 42.4071511,70.653651 Z M140.173327,72.2874102 L140.173327,73.5078053 L142.428413,73.5078053 L142.428413,76.3930583 L140.173327,76.3930583 L140.173327,78.3764137 L139.510047,78.3764137 L139.510047,76.3930583 L137.267934,76.3930583 L137.267934,73.5078053 L139.510047,73.5078053 L139.510047,72.2874102 L140.173327,72.2874102 Z M122.730007,72.2774422 L123.32672,72.4764605 C123.154329,73.0161653 122.944045,73.5292433 122.696553,74.0153531 L122.696553,78.3531323 L122.046927,78.3531323 L122.046927,75.1428958 C121.843471,75.4566141 121.60895,75.7751116 121.343706,76.0977056 L121.118061,75.3217732 C121.418807,74.9636769 121.71614,74.5059007 122.010059,73.9487861 C122.304319,73.3920128 122.543961,72.8348982 122.730007,72.2774422 Z M110.559203,75.1166786 L110.559203,76.8143079 L108.562875,76.8143079 L108.562875,77.113006 L110.744908,77.113006 L110.744908,77.4977292 L108.562875,77.4977292 L108.562875,77.8093993 L111.156258,77.8093993 L111.156258,78.2135805 L105.339325,78.2135805 L105.339325,77.8093993 L107.946021,77.8093993 L107.946021,77.4977292 L105.757161,77.4977292 L105.757161,77.113006 L107.946021,77.113006 L107.946021,76.8143079 L105.942866,76.8143079 L105.942866,75.1166786 L110.559203,75.1166786 Z M154.94359,73.6474594 L154.94359,77.0434008 C154.94359,77.1802899 154.958269,77.2830421 154.986944,77.3513159 C155.015619,77.4199311 155.065459,77.4677228 155.136122,77.4940083 C155.206786,77.5209764 155.312952,77.5339485 155.454279,77.5339485 L156.124386,77.5339485 C156.287902,77.5339485 156.40943,77.5209764 156.488969,77.4940083 C156.568508,77.4677228 156.624834,77.4209552 156.658288,77.355071 C156.691401,77.2888453 156.712224,77.1847277 156.721441,77.0434008 C156.730317,76.8887606 156.736462,76.7150036 156.741241,76.5228127 C156.745337,76.3302804 156.747727,76.1742747 156.747727,76.0547955 L157.404521,76.2073875 L157.351268,77.2820179 C157.337954,77.5121008 157.295966,77.6920024 157.225302,77.8224055 C157.154639,77.9531499 157.041987,78.0466851 156.887005,78.1043765 C156.732365,78.1617265 156.520033,78.1907429 156.250352,78.1907429 L155.288714,78.1907429 C155.032005,78.1907429 154.829914,78.1596783 154.68176,78.0978905 C154.533264,78.0357613 154.42505,77.931985 154.356776,77.7862203 C154.288161,77.6404557 154.254024,77.4366582 154.254024,77.1755107 L154.254024,73.6474594 L154.94359,73.6474594 Z M124.765967,72.3374549 L124.765967,74.7847311 C125.363022,74.2894043 125.920137,73.7408239 126.437311,73.1396727 L126.88826,73.6175896 C126.20279,74.3911324 125.495473,75.0612402 124.765967,75.6268891 L124.765967,77.1128695 C124.765967,77.285261 124.796008,77.4013265 124.855406,77.4607248 C124.915146,77.5208057 125.029163,77.5505049 125.197117,77.5505049 L125.853911,77.5505049 C126.034837,77.5505049 126.15773,77.5238781 126.221907,77.4706245 C126.286085,77.4180536 126.32227,77.313936 126.331487,77.1589543 C126.340362,77.0043141 126.347872,76.8220229 126.354358,76.6120808 C126.361186,76.4021387 126.364599,76.2304299 126.364599,76.0976373 L126.981112,76.2440847 C126.958923,76.8141714 126.941513,77.1947981 126.9282,77.3849408 C126.906011,77.6812493 126.825448,77.8888018 126.686169,78.008281 C126.546891,78.1277603 126.306908,78.1871585 125.966563,78.1871585 L125.018239,78.1871585 C124.783718,78.1871585 124.600062,78.159849 124.46761,78.1045472 C124.335159,78.0492454 124.238893,77.9550274 124.179153,77.8222348 C124.119414,77.6897835 124.089373,77.5064682 124.089373,77.2716062 L124.089373,76.1246055 C123.779751,76.341375 123.483443,76.5335658 123.200789,76.7015195 L122.86932,76.1044647 C123.311051,75.8439999 123.717964,75.5780733 124.089373,75.3087329 L124.089373,72.3374549 L124.765967,72.3374549 Z M94.218812,72.8042774 C92.7734546,72.8042774 91.9773814,73.3852878 91.9773814,74.2411006 C91.9773814,74.9040397 92.38839,75.3898081 94.0498342,75.7031851 C95.0937414,75.8984483 95.3883431,76.0722053 95.3883431,76.4716073 C95.3883431,76.8310692 95.086914,77.0543247 94.3819865,77.0543247 C93.6756935,77.0543247 93.2356685,76.8385793 93.0963899,76.3456421 L91.7664152,76.3456421 C91.9125213,77.2403709 92.7290766,77.8538115 94.2785516,77.8538115 C95.8925455,77.8538115 96.7360689,77.2390054 96.7360689,76.3429111 C96.7360689,75.6509556 96.346908,75.1197851 94.5711051,74.7835363 C93.5845479,74.5991969 93.3251073,74.4609424 93.3251073,74.1195731 C93.3251073,73.7706937 93.6487253,73.5928403 94.1843337,73.5928403 C94.9715312,73.5928403 95.1794251,73.9212376 95.2432612,74.223008 L96.5732358,74.223008 C96.4855039,73.5051084 95.8399746,72.8042774 94.218812,72.8042774 Z M73.6359524,72.8756235 L72.3138293,72.8756235 L72.3138293,75.7680453 C72.3138293,77.4076418 73.5011116,77.8538115 74.8792193,77.8538115 C76.2255797,77.8538115 77.448023,77.4260758 77.448023,75.7475631 L77.448023,72.8756235 L76.1265826,72.8756235 L76.1265826,75.8008167 C76.1265826,76.6914491 75.6524207,77.0215532 74.8969705,77.0215532 C74.2384692,77.0215532 73.6359524,76.7426545 73.6359524,75.8008167 L73.6359524,72.8756235 Z M60.5973535,72.8756235 L58.9611707,72.8756235 L58.9611707,77.7845135 L60.1651801,77.7845135 L60.1651801,76.2917057 C60.1651801,76.2184536 60.1650805,76.1443006 60.1648723,76.0696571 L60.1622464,75.6191923 C60.1561338,74.9445133 60.139748,74.2965731 60.1064645,73.9744912 L60.1228503,73.9744912 C60.2814569,74.2716775 60.7854952,75.0397111 61.3238635,75.8416465 L61.6190536,76.2798017 C62.0121937,76.8614882 62.3935736,77.4190858 62.6435209,77.7845135 L64.1953855,77.7845135 L64.1953855,72.8756235 L62.9988863,72.8756235 L62.9989453,74.5999546 C62.9995184,75.3211213 63.0054861,76.0454647 63.0664774,76.5006237 L63.0497503,76.5006237 C62.7694861,75.9656981 61.3596311,73.9779049 60.5973535,72.8756235 Z M70.7588923,72.8756235 L65.7342782,72.8756235 L65.7342782,73.7457738 L67.5892787,73.7457738 L67.5892787,77.7845135 L68.9103778,77.7845135 L68.9103778,73.7457738 L70.7588923,73.7457738 L70.7588923,72.8756235 Z M90.3459777,72.8756235 L86.0167328,72.8756235 L86.0167328,77.7845135 L90.3623635,77.7845135 L90.519052,76.9143633 L87.2978916,76.9143633 L87.2978916,75.6676827 L90.2179643,75.6676827 L90.2179643,74.7975325 L87.2978916,74.7975325 L87.2978916,73.7457738 L90.3459777,73.7457738 L90.3459777,72.8756235 Z M47.0030055,72.8756235 L45.5852989,72.8756235 L47.7396803,77.7845135 L49.2966655,77.7845135 L51.5080556,72.8756235 L50.1620366,72.8756235 L49.209275,75.1590425 C48.9184284,75.8550944 48.6801526,76.4548802 48.5552115,76.9126564 L48.5378017,76.9126564 C48.3968162,76.4115263 48.1865327,75.8291504 47.9113891,75.1429982 L47.0030055,72.8756235 Z M82.1592601,72.8756235 L79.4764391,72.8756235 L79.4764391,77.7845135 L80.7664736,77.7845135 L80.7664736,75.819592 L81.634917,75.819592 C82.6190845,75.819592 82.7877209,76.0735708 82.7877209,76.6105446 L82.7877209,76.6822322 C82.7877209,77.203503 82.8078617,77.5708163 82.9150517,77.7845135 L84.16617,77.7845135 C84.0821932,77.5544306 84.0787795,77.1789244 84.0787795,76.848479 L84.0787795,76.6061068 C84.0787795,75.7274223 83.6223688,75.4748091 83.320257,75.3846876 C83.7613061,75.2385816 84.2074757,74.8818507 84.2074757,74.2233494 C84.2074757,73.4655096 83.4906003,72.8756235 82.1592601,72.8756235 Z M57.2109705,72.8756235 L52.8813841,72.8756235 L52.8813841,77.7845135 L57.2273562,77.7845135 L57.3837033,76.9143633 L54.162543,76.9143633 L54.162543,75.6676827 L57.0826156,75.6676827 L57.0826156,74.7975325 L54.162543,74.7975325 L54.162543,73.7457738 L57.2109705,73.7457738 L57.2109705,72.8756235 Z M153.332054,74.2176144 L153.988507,74.363379 C153.767641,75.389535 153.522197,76.2405686 153.252515,76.9171625 L152.635319,76.7113168 C152.887591,76.0572533 153.119722,75.2256778 153.332054,74.2176144 Z M157.623271,74.0717131 C157.853353,74.5806947 158.198136,75.4115875 158.657961,76.565757 L158.047934,76.8443143 C157.89739,76.4374021 157.724999,75.989867 157.530418,75.5010262 C157.335838,75.0125268 157.17198,74.6264382 157.039529,74.3437844 Z M107.946021,76.131228 L106.553234,76.131228 L106.553234,76.4295848 L107.946021,76.4295848 L107.946021,76.131228 Z M109.942348,76.131228 L108.562875,76.131228 L108.562875,76.4295848 L109.942348,76.4295848 L109.942348,76.131228 Z M107.946021,75.4809196 L106.553234,75.4809196 L106.553234,75.7731317 L107.946021,75.7731317 L107.946021,75.4809196 Z M109.942348,75.4809196 L108.562875,75.4809196 L108.562875,75.7731317 L109.942348,75.7731317 L109.942348,75.4809196 Z M141.778446,74.1512863 L140.173327,74.1512863 L140.173327,75.7564046 L141.778446,75.7564046 L141.778446,74.1512863 Z M139.510047,74.1512863 L137.918242,74.1512863 L137.918242,75.7564046 L139.510047,75.7564046 L139.510047,74.1512863 Z M81.9050766,73.7204783 C82.5506059,73.7204783 82.8749067,73.9440752 82.8749067,74.3431358 C82.8749067,74.7541444 82.5963493,74.9750103 81.8733292,74.9750103 L80.7666101,74.9750103 L80.7666101,73.7204783 Z M111.20917,74.4001445 L111.20917,74.7981811 L105.292899,74.7981811 L105.292899,74.4001445 L111.20917,74.4001445 Z M155.341661,72.2544339 C155.527366,72.480079 155.755059,72.7763875 156.024741,73.1433594 C156.294422,73.5103314 156.517678,73.8240497 156.694849,74.0848559 L156.14422,74.4962058 C155.980704,74.2350583 155.768372,73.9182677 155.507566,73.5444683 C155.246419,73.170669 155.025553,72.8688986 154.843944,72.6388157 Z M110.565689,72.4898421 L110.565689,74.0949604 L105.929553,74.0949604 L105.929553,72.4898421 L110.565689,72.4898421 Z M109.949176,73.4647927 L106.55972,73.4647927 L106.55972,73.7300367 L109.949176,73.7300367 L109.949176,73.4647927 Z M109.949176,72.8680793 L106.55972,72.8680793 L106.55972,73.1264958 L109.949176,73.1264958 L109.949176,72.8680793 Z" id="VENTURES-LOGO"></path>
        </g>
    </g>
</svg>